<svg width="25" height="25" viewBox="0 0 25 25" fill="none" xmlns="http://www.w3.org/2000/svg">
<g clip-path="url(#clip0_145_6304)">
<path d="M22.3906 5H2.60938C1.44866 5 0.5 5.94448 0.5 7.10938V19.7656C0.5 20.9309 1.44927 21.875 2.60938 21.875H22.3906C23.5513 21.875 24.5 20.9305 24.5 19.7656V7.10938C24.5 5.9442 23.5509 5 22.3906 5ZM22.0667 6.40625L13.0449 15.4575C12.77 15.7332 12.2301 15.7334 11.9551 15.4575L2.93328 6.40625H22.0667ZM1.90625 19.5071V7.36789L7.95617 13.4375L1.90625 19.5071ZM2.93328 20.4688L8.94894 14.4335L10.9592 16.4503C11.783 17.2768 13.2174 17.2764 14.0409 16.4503L16.0511 14.4335L22.0667 20.4688H2.93328ZM23.0938 19.5071L17.0438 13.4375L23.0938 7.36789V19.5071Z" fill="#616161"/>
</g>
<defs>
<clipPath id="clip0_145_6304">
<rect width="24" height="24" fill="white" transform="translate(0.5 0.5)"/>
</clipPath>
</defs>
</svg>
