<svg width="25" height="25" viewBox="0 0 25 25" fill="none" xmlns="http://www.w3.org/2000/svg">
<g clip-path="url(#clip0_145_6293)">
<path d="M16.5067 16.3571C19.0606 12.3496 18.7395 12.8496 18.8131 12.7451C19.7429 11.4336 20.2344 9.89009 20.2344 8.28125C20.2344 4.01469 16.7721 0.5 12.5 0.5C8.24178 0.5 4.76562 4.00775 4.76562 8.28125C4.76562 9.88906 5.26737 11.473 6.22766 12.8022L8.49322 16.3572C6.07095 16.7294 1.95312 17.8387 1.95312 20.2812C1.95312 21.1716 2.53428 22.4405 5.30291 23.4293C7.23612 24.1197 9.79208 24.5 12.5 24.5C17.5637 24.5 23.0469 23.0716 23.0469 20.2812C23.0469 17.8383 18.9339 16.7301 16.5067 16.3571ZM7.4023 12.0287C7.39457 12.0166 7.38649 12.0047 7.37806 11.9931C6.57898 10.8938 6.17188 9.59098 6.17188 8.28125C6.17188 4.76478 9.00341 1.90625 12.5 1.90625C15.9893 1.90625 18.8281 4.76605 18.8281 8.28125C18.8281 9.59309 18.4287 10.8517 17.6728 11.9221C17.6051 12.0114 17.9585 11.4624 12.5 20.0276L7.4023 12.0287ZM12.5 23.0938C6.96903 23.0938 3.35938 21.468 3.35938 20.2812C3.35938 19.4836 5.21413 18.1721 9.32413 17.6609L11.907 21.7138C11.9705 21.8135 12.0582 21.8956 12.1618 21.9525C12.2654 22.0093 12.3817 22.0391 12.5 22.0391C12.6182 22.0391 12.7345 22.0093 12.8381 21.9525C12.9417 21.8956 13.0294 21.8135 13.0929 21.7138L15.6757 17.6609C19.7858 18.1721 21.6406 19.4836 21.6406 20.2812C21.6406 21.4579 18.0635 23.0938 12.5 23.0938Z" fill="#616161"/>
<path d="M12.5 4.76562C10.5615 4.76562 8.98438 6.34273 8.98438 8.28125C8.98438 10.2198 10.5615 11.7969 12.5 11.7969C14.4385 11.7969 16.0156 10.2198 16.0156 8.28125C16.0156 6.34273 14.4385 4.76562 12.5 4.76562ZM12.5 10.3906C11.3369 10.3906 10.3906 9.44436 10.3906 8.28125C10.3906 7.11814 11.3369 6.17188 12.5 6.17188C13.6631 6.17188 14.6094 7.11814 14.6094 8.28125C14.6094 9.44436 13.6631 10.3906 12.5 10.3906Z" fill="#616161"/>
</g>
<defs>
<clipPath id="clip0_145_6293">
<rect width="24" height="24" fill="white" transform="translate(0.5 0.5)"/>
</clipPath>
</defs>
</svg>
