<svg width="25" height="25" viewBox="0 0 25 25" fill="none" xmlns="http://www.w3.org/2000/svg">
<g clip-path="url(#clip0_145_6299)">
<path d="M19.4677 15.3671C18.9763 14.8555 18.3837 14.582 17.7556 14.582C17.1326 14.582 16.5348 14.8505 16.0232 15.3621L14.4226 16.9577C14.2909 16.8867 14.1592 16.8209 14.0326 16.7551C13.8502 16.6639 13.678 16.5778 13.5311 16.4866C12.0317 15.5343 10.6691 14.2933 9.36229 12.6876C8.72912 11.8872 8.30362 11.2135 7.99464 10.5297C8.41 10.1498 8.79497 9.75472 9.1698 9.37481C9.31163 9.23298 9.45346 9.08609 9.59529 8.94426C10.659 7.88053 10.659 6.50275 9.59529 5.43902L8.21245 4.05618C8.05542 3.89915 7.89333 3.73706 7.74137 3.57497C7.43745 3.26092 7.11833 2.93673 6.78908 2.63281C6.29774 2.14654 5.71016 1.8882 5.09218 1.8882C4.47421 1.8882 3.8765 2.14654 3.36996 2.63281L3.35983 2.64294L1.63761 4.38036C0.989239 5.02873 0.619467 5.81893 0.538421 6.73576C0.416853 8.21485 0.852474 9.59262 1.18679 10.4943C2.00738 12.7078 3.2332 14.7593 5.06179 16.9577C7.28042 19.6069 9.94987 21.6988 12.9992 23.1729C14.1643 23.725 15.7193 24.3784 17.4567 24.4899C17.5631 24.4949 17.6745 24.5 17.7759 24.5C18.946 24.5 19.9286 24.0796 20.6986 23.2438C20.7036 23.2337 20.7138 23.2286 20.7188 23.2185C20.9822 22.8993 21.2862 22.6106 21.6053 22.3016C21.8231 22.0939 22.046 21.8761 22.2638 21.6482C22.7652 21.1265 23.0286 20.5186 23.0286 19.8956C23.0286 19.2675 22.7602 18.6647 22.2486 18.1582L19.4677 15.3671ZM21.2811 20.701C21.276 20.701 21.276 20.706 21.2811 20.701C21.0835 20.9137 20.8809 21.1062 20.6631 21.3189C20.3339 21.633 19.9996 21.9622 19.6855 22.332C19.1739 22.8791 18.5711 23.1374 17.7809 23.1374C17.7049 23.1374 17.6239 23.1374 17.5479 23.1323C16.0435 23.0361 14.6455 22.4485 13.5969 21.9471C10.7299 20.5591 8.21245 18.5887 6.12045 16.0915C4.39316 14.0096 3.23826 12.0848 2.47339 10.0181C2.00231 8.75684 1.83009 7.77416 1.90607 6.8472C1.95672 6.25455 2.18466 5.76321 2.60509 5.34278L4.33238 3.61549C4.58058 3.38249 4.84398 3.25585 5.10231 3.25585C5.42143 3.25585 5.67977 3.44834 5.84186 3.61043L5.85705 3.62562C6.16604 3.91435 6.45983 4.21321 6.76882 4.53233C6.92585 4.69442 7.08794 4.85651 7.25003 5.02367L8.63287 6.40651C9.1698 6.94344 9.1698 7.43984 8.63287 7.97677C8.48598 8.12367 8.34415 8.27056 8.19725 8.41239C7.77176 8.84802 7.36653 9.25325 6.92585 9.64834C6.91572 9.65847 6.90558 9.66354 6.90052 9.67367C6.4649 10.1093 6.54594 10.5348 6.63712 10.8235L6.65232 10.8691C7.01196 11.7403 7.51849 12.5609 8.28843 13.5385L8.29349 13.5436C9.69153 15.2658 11.1656 16.6082 12.7915 17.6364C12.9992 17.7681 13.212 17.8745 13.4146 17.9758C13.5969 18.067 13.7692 18.1531 13.916 18.2443C13.9363 18.2544 13.9566 18.2696 13.9768 18.2797C14.1491 18.3658 14.3111 18.4064 14.4783 18.4064C14.8987 18.4064 15.1621 18.143 15.2482 18.0568L16.9806 16.3245C17.1528 16.1523 17.4263 15.9446 17.7455 15.9446C18.0595 15.9446 18.3179 16.1421 18.4749 16.3144L18.485 16.3245L21.276 19.1155C21.7978 19.6322 21.7978 20.164 21.2811 20.701ZM13.4703 6.20896C14.7974 6.43184 16.003 7.05994 16.9654 8.02236C17.9278 8.98478 18.5509 10.1903 18.7788 11.5175C18.8345 11.8518 19.1232 12.0848 19.4525 12.0848C19.493 12.0848 19.5285 12.0797 19.569 12.0747C19.9438 12.0139 20.192 11.6593 20.1313 11.2845C19.8577 9.67874 19.0979 8.21485 17.9379 7.05488C16.778 5.89491 15.3141 5.1351 13.7084 4.86157C13.3335 4.80079 12.984 5.04899 12.9182 5.41876C12.8523 5.78854 13.0955 6.14818 13.4703 6.20896ZM24.4723 11.0869C24.0215 8.44279 22.7754 6.03674 20.8607 4.12203C18.946 2.20732 16.5399 0.961243 13.8958 0.510425C13.526 0.444576 13.1765 0.697844 13.1107 1.06762C13.0499 1.44245 13.2981 1.79196 13.6729 1.85781C16.0334 2.25798 18.1862 3.37742 19.8982 5.08445C21.6103 6.79654 22.7247 8.94932 23.1249 11.3098C23.1806 11.6441 23.4693 11.8771 23.7986 11.8771C23.8391 11.8771 23.8746 11.872 23.9151 11.867C24.2849 11.8113 24.5381 11.4567 24.4723 11.0869Z" fill="#616161"/>
</g>
<defs>
<clipPath id="clip0_145_6299">
<rect width="24" height="24" fill="white" transform="translate(0.5 0.5)"/>
</clipPath>
</defs>
</svg>
