<svg width="32" height="29" viewBox="0 0 32 29" fill="none" xmlns="http://www.w3.org/2000/svg">
<path d="M29 0.5C30.625 0.5 32 1.875 32 3.5V18.5C32 24.0625 27.5 28.5 22 28.5H21.5C20.625 28.5 20 27.875 20 27V24C20 23.1875 20.625 22.5 21.5 22.5H22C24.1875 22.5 26 20.75 26 18.5V14.5H21C19.3125 14.5 18 13.1875 18 11.5V3.5C18 1.875 19.3125 0.5 21 0.5H29ZM11 0.5C12.625 0.5 14 1.875 14 3.5V18.5C14 24.0625 9.5 28.5 4 28.5H3.5C2.625 28.5 2 27.875 2 27V24C2 23.1875 2.625 22.5 3.5 22.5H4C6.1875 22.5 8 20.75 8 18.5V14.5H3C1.3125 14.5 0 13.1875 0 11.5V3.5C0 1.875 1.3125 0.5 3 0.5H11Z" fill="#015584"/>
</svg>
