<svg width="181" height="75" viewBox="0 0 181 75" fill="none" xmlns="http://www.w3.org/2000/svg">
<path d="M8.08938 40.1568V51.9416H2.875V22.7685L11.3594 22.6351C13.834 22.6054 15.9256 23.4356 17.6343 25.1254C19.3724 26.7857 20.2415 28.8758 20.2415 31.3957C20.2415 33.7381 19.2251 35.7985 17.1924 37.5773C15.1891 39.3561 12.9355 40.2456 10.4314 40.2456C10.0779 40.2456 9.29722 40.216 8.08938 40.1568ZM8.08938 26.0149V37.0436H9.54762C11.0501 37.0436 12.3316 36.4952 13.3921 35.3983C14.4821 34.2718 15.0271 32.9819 15.0271 31.5292C15.0271 28.0606 13.3774 26.1927 10.0779 25.9259C9.87167 25.8963 9.53289 25.9111 9.06152 25.9704C8.61966 26.0001 8.29558 26.0149 8.08938 26.0149ZM22.937 37.2662C22.937 33.0266 24.189 29.5133 26.6931 26.7264C29.1971 23.9099 32.3788 22.5017 36.238 22.5017C40.0679 22.5017 43.1904 23.9099 45.6062 26.7264C48.022 29.5133 49.2296 33.0266 49.2296 37.2662C49.2296 42.0987 47.9335 45.9083 45.3409 48.6952C42.896 51.3339 39.7585 52.6531 35.9286 52.6531C32.1285 52.6531 29.0498 51.3339 26.6931 48.6952C24.189 45.9083 22.937 42.0987 22.937 37.2662ZM28.5933 37.6664C28.5933 40.6013 29.2857 43.1512 30.6703 45.3154C32.0547 47.4796 33.8076 48.5617 35.9286 48.5617C38.0792 48.5617 39.9058 47.45 41.4081 45.2263C42.8516 43.0917 43.5734 40.6013 43.5734 37.7552C43.5734 34.7311 42.9107 32.1224 41.5849 29.9283C40.2002 27.6455 38.3886 26.5189 36.1495 26.5485C33.9108 26.5485 32.0694 27.6751 30.6259 29.9283C29.271 32.0925 28.5933 34.6719 28.5933 37.6664ZM52.0577 37.2662C52.0577 33.0266 53.31 29.5133 55.814 26.7264C58.3181 23.9099 61.4997 22.5017 65.359 22.5017C69.1885 22.5017 72.0461 23.9099 74.4619 26.7264C76.8774 29.5133 78.3505 33.0266 78.3505 37.2662C78.3505 42.0987 77.0544 45.9083 74.4619 48.6952C72.0167 51.3339 68.8794 52.6531 65.0496 52.6531C61.2491 52.6531 58.1707 51.3339 55.814 48.6952C53.31 45.9083 52.0577 42.0987 52.0577 37.2662ZM57.714 37.6664C57.714 40.6013 58.4063 43.1512 59.791 45.3154C61.1756 47.4796 62.9285 48.5617 65.0496 48.5617C67.2001 48.5617 69.0265 47.45 70.5291 45.2263C71.9725 43.0917 72.6943 40.6013 72.6943 37.7552C72.6943 34.7311 72.0316 32.1224 70.7058 29.9283C69.3212 27.6455 67.5095 26.5189 65.2704 26.5485C63.0317 26.5485 61.1903 27.6751 59.7468 29.9283C58.3916 32.0925 57.714 34.6719 57.714 37.6664ZM82.5927 22.7685H87.8513V48.0725H99.5614V51.9416H82.5927V22.7685ZM103.495 48.206L105.925 44.6927C107.722 46.8273 109.784 47.8946 112.111 47.8946C115.293 47.8946 116.869 46.338 116.84 43.2252C116.84 41.6538 115.735 40.4087 113.525 39.4896C109.931 37.9778 107.928 37.0732 107.516 36.777C105.336 35.2648 104.26 32.9375 104.29 29.7951C104.319 27.3045 105.306 25.2737 107.251 23.7024C108.9 22.3683 110.697 21.7012 112.642 21.7012C115.764 21.7012 118.607 22.7833 121.17 24.9476L119.358 28.7721C117.296 26.8154 115.352 25.837 113.525 25.837C112.288 25.837 111.375 26.089 110.786 26.593C110.049 27.1859 109.696 28.2681 109.725 29.8395C109.725 31.2329 110.786 32.3594 112.907 33.2193C116.206 34.5533 118.18 35.4723 118.828 35.9763C120.979 37.5773 122.039 39.9641 122.01 43.1361C122.01 46.2492 121.008 48.6357 119.005 50.2962C117.267 51.6897 115.087 52.3861 112.465 52.3861C108.458 52.3861 105.468 50.9929 103.495 48.206ZM125.766 22.7685H131.113V51.9416H125.766V22.7685ZM136.813 51.8528V22.6795C139.229 22.5609 141.674 22.4868 144.149 22.4572C153.34 22.4572 157.98 27.3787 158.068 37.2215C158.098 41.8761 156.934 45.4785 154.577 48.0281C152.162 50.6964 148.627 52.0304 143.972 52.0304C143.235 52.0304 142.16 52.0008 140.746 51.9416C139.361 51.8824 138.051 51.8528 136.813 51.8528ZM144.546 26.0149C144.34 26.0149 143.987 26.0149 143.486 26.0149C143.044 26.0445 142.646 26.0593 142.293 26.0593V47.9837H144.811C147.139 47.9837 149.024 46.872 150.468 44.6483C151.764 42.662 152.412 40.3347 152.412 37.6664C152.412 29.8987 149.79 26.0149 144.546 26.0149ZM167.569 34.1531H177.865V38.2L167.569 38.1554V47.8946H178.44V51.9416H162.355V22.8129H178.572V26.6819H167.569V34.1531Z" fill="white"/>
<path d="M130.367 65.2384L130.975 64.3601C131.424 64.8938 131.939 65.1605 132.521 65.1605C133.317 65.1605 133.711 64.7714 133.703 63.9932C133.703 63.6005 133.427 63.2891 132.875 63.0591C131.976 62.6812 131.476 62.4552 131.372 62.3812C130.827 62.0032 130.559 61.4212 130.566 60.6356C130.573 60.0129 130.82 59.5054 131.306 59.1124C131.718 58.7788 132.168 58.6123 132.654 58.6123C133.435 58.6123 134.145 58.8827 134.786 59.4237L134.333 60.3798C133.818 59.8908 133.331 59.646 132.875 59.646C132.565 59.646 132.337 59.7092 132.19 59.835C132.006 59.9833 131.917 60.254 131.925 60.6467C131.925 60.9951 132.19 61.2766 132.72 61.4918C133.545 61.8253 134.038 62.055 134.2 62.1811C134.738 62.5813 135.003 63.1778 134.996 63.971C134.996 64.7492 134.745 65.3457 134.245 65.761C133.81 66.1094 133.265 66.2835 132.61 66.2835C131.608 66.2835 130.86 65.9352 130.367 65.2384ZM141.205 66.2389L139.824 61.6585L138.365 66.2389H137.371L135.338 59.0902L136.841 58.7899L138.111 63.8043L139.36 58.9345H140.52L141.768 63.7932L142.939 58.7788L144.077 59.1013L142.088 66.2389H141.205ZM144.85 58.879H146.187V66.1723H144.85V58.879ZM153.545 61.3139L151.821 66.1834H150.65L148.915 61.2692V66.1723H147.723V58.8679H149.435L151.412 64.2377L153.423 58.8679H155.025V66.1723H153.545V61.3139ZM162.515 61.3139L160.792 66.1834H159.62L157.886 61.2692V66.1723H156.693V58.8679H158.405L160.383 64.2377L162.393 58.8679H163.995V66.1723H162.515V61.3139ZM165.553 58.879H166.89V66.1723H165.553V58.879ZM169.486 61.6028L169.475 66.1723H168.315V58.8457H169.397L172.314 63.4485V58.8901H173.463V66.0055L172.391 66.339C171.655 64.9752 170.686 63.3964 169.486 61.6028ZM177.584 66.2389C176.611 66.2389 175.842 65.8424 175.275 65.0494C174.774 64.3527 174.523 63.5003 174.523 62.4922C174.516 61.5732 174.752 60.7392 175.23 59.9907C175.805 59.1013 176.578 58.6567 177.55 58.6567C177.896 58.6567 178.291 58.7233 178.732 58.8568C179.241 59.0199 179.638 59.22 179.926 59.457L179.461 60.3243C178.858 59.9093 178.305 59.6981 177.804 59.6907C177.237 59.6907 176.784 60.0391 176.446 60.7355C176.166 61.3065 176.026 61.9104 176.026 62.548C176.026 63.2595 176.181 63.8672 176.49 64.3712C176.799 64.8753 177.178 65.1271 177.628 65.1271C178.084 65.1271 178.442 65.0643 178.699 64.9382V62.7148H177.208V61.7251H180.036V65.4274C179.543 65.7314 179.152 65.9352 178.865 66.0388C178.497 66.1723 178.069 66.2389 177.584 66.2389Z" fill="#015584"/>
</svg>
