<svg width="118" height="48" viewBox="0 0 118 48" fill="none" xmlns="http://www.w3.org/2000/svg">
<path d="M5.27053 25.5864V33.2306H1.87109V14.3075L7.40234 14.221C9.01563 14.2018 10.3792 14.7402 11.4932 15.8364C12.6263 16.9133 13.1929 18.2691 13.1929 19.9036C13.1929 21.423 12.5303 22.7594 11.2051 23.9133C9.89909 25.0671 8.42987 25.644 6.79737 25.644C6.5669 25.644 6.05796 25.6248 5.27053 25.5864ZM5.27053 16.4133V23.5671H6.2212C7.20069 23.5671 8.03615 23.2114 8.72756 22.4999C9.43816 21.7691 9.79347 20.9325 9.79347 19.9902C9.79347 17.7402 8.71795 16.5287 6.5669 16.3556C6.43246 16.3364 6.21159 16.346 5.9043 16.3845C5.61623 16.4037 5.40495 16.4133 5.27053 16.4133ZM14.9502 23.7115C14.9502 20.9614 15.7664 18.6826 17.3989 16.8748C19.0314 15.0479 21.1056 14.1345 23.6216 14.1345C26.1184 14.1345 28.1541 15.0479 29.729 16.8748C31.3039 18.6826 32.0912 20.9614 32.0912 23.7115C32.0912 26.8461 31.2462 29.3171 29.5561 31.1249C27.9621 32.8365 25.9167 33.6922 23.4199 33.6922C20.9424 33.6922 18.9353 32.8365 17.3989 31.1249C15.7664 29.3171 14.9502 26.8461 14.9502 23.7115ZM18.6378 23.971C18.6378 25.8748 19.0891 27.5288 19.9918 28.9326C20.8943 30.3364 22.0371 31.0383 23.4199 31.0383C24.8219 31.0383 26.0128 30.3172 26.9922 28.8748C27.9332 27.4902 28.4037 25.8748 28.4037 24.0287C28.4037 22.0671 27.9717 20.3749 27.1074 18.9517C26.2047 17.471 25.0236 16.7402 23.5639 16.7595C22.1044 16.7595 20.9039 17.4902 19.9629 18.9517C19.0795 20.3555 18.6378 22.0287 18.6378 23.971ZM33.935 23.7115C33.935 20.9614 34.7514 18.6826 36.3838 16.8748C38.0163 15.0479 40.0905 14.1345 42.6065 14.1345C45.1031 14.1345 47.139 15.0479 48.7139 16.8748C50.2887 18.6826 51.0761 20.9614 51.0761 23.7115C51.0761 26.8461 50.2311 29.3171 48.541 31.1249C46.9469 32.8365 44.9016 33.6922 42.4048 33.6922C39.9272 33.6922 37.9202 32.8365 36.3838 31.1249C34.7514 29.3171 33.935 26.8461 33.935 23.7115ZM37.6225 23.971C37.6225 25.8748 38.0738 27.5288 38.9765 28.9326C39.8792 30.3364 41.022 31.0383 42.4048 31.0383C43.8068 31.0383 44.9975 30.3172 45.9771 28.8748C46.9181 27.4902 47.3886 25.8748 47.3886 24.0287C47.3886 22.0671 46.9566 20.3749 46.0923 18.9517C45.1896 17.471 44.0085 16.7402 42.5488 16.7595C41.0893 16.7595 39.8888 17.4902 38.9478 18.9517C38.0642 20.3555 37.6225 22.0287 37.6225 23.971ZM53.8418 14.3075H57.27V30.721H64.9043V33.2306H53.8418V14.3075ZM67.4684 30.8075L69.0527 28.5287C70.2242 29.9133 71.5687 30.6056 73.0859 30.6056C75.1601 30.6056 76.1876 29.5959 76.1685 27.5768C76.1685 26.5575 75.4483 25.7498 74.0078 25.1537C71.6647 24.173 70.3588 23.5863 70.0898 23.3941C68.6686 22.4133 67.9677 20.9037 67.9868 18.8653C68.006 17.2498 68.6495 15.9325 69.917 14.9133C70.9925 14.0479 72.164 13.6152 73.4316 13.6152C75.4675 13.6152 77.3208 14.3172 78.9918 15.721L77.8105 18.2018C76.4662 16.9326 75.1986 16.2979 74.0078 16.2979C73.2011 16.2979 72.6058 16.4614 72.2217 16.7883C71.7416 17.1729 71.5112 17.8748 71.5303 18.8941C71.5303 19.798 72.2217 20.5287 73.6045 21.0864C75.7555 21.9517 77.0424 22.5479 77.4648 22.8748C78.8668 23.9133 79.5582 25.4615 79.539 27.519C79.539 29.5383 78.8861 31.0863 77.58 32.1634C76.4469 33.0672 75.0257 33.519 73.3164 33.519C70.7045 33.519 68.7551 32.6153 67.4684 30.8075ZM81.9879 14.3075H85.4737V33.2306H81.9879V14.3075ZM89.1899 33.173V14.2498C90.7649 14.1729 92.359 14.1248 93.9723 14.1056C99.9645 14.1056 102.989 17.2979 103.047 23.6825C103.066 26.7017 102.307 29.0384 100.771 30.6922C99.1962 32.4229 96.8915 33.2882 93.8568 33.2882C93.3767 33.2882 92.6757 33.269 91.7539 33.2306C90.8512 33.1922 89.9966 33.173 89.1899 33.173ZM94.2315 16.4133C94.0971 16.4133 93.8666 16.4133 93.5401 16.4133C93.2519 16.4325 92.9927 16.4422 92.7622 16.4422V30.6634H94.4043C95.9215 30.6634 97.1507 29.9422 98.0918 28.4999C98.9369 27.2114 99.3593 25.7018 99.3593 23.971C99.3593 18.9325 97.65 16.4133 94.2315 16.4133ZM109.241 21.6922H115.953V24.3172L109.241 24.2882V30.6056H116.328V33.2306H105.841V14.3364H116.414V16.846H109.241V21.6922Z" fill="white"/>
<path d="M84.9922 41.8556L85.3882 41.2859C85.6812 41.6321 86.0171 41.8051 86.3966 41.8051C86.915 41.8051 87.1719 41.5527 87.1671 41.048C87.1671 40.7932 86.9871 40.5912 86.627 40.442C86.0413 40.1969 85.7148 40.0503 85.6475 40.0023C85.2922 39.7571 85.117 39.3796 85.1218 38.8701C85.1266 38.4661 85.2874 38.1369 85.6043 37.882C85.8731 37.6656 86.1661 37.5576 86.4829 37.5576C86.9919 37.5576 87.4553 37.733 87.873 38.084L87.5777 38.7041C87.2416 38.3869 86.9246 38.2281 86.627 38.2281C86.4253 38.2281 86.2765 38.2691 86.1805 38.3507C86.0605 38.4469 86.0027 38.6225 86.0075 38.8772C86.0075 39.1032 86.1805 39.2858 86.5262 39.4254C87.064 39.6417 87.3856 39.7907 87.4912 39.8725C87.8417 40.1321 88.0147 40.519 88.0099 41.0336C88.0099 41.5383 87.8465 41.9252 87.5202 42.1946C87.2368 42.4206 86.8815 42.5336 86.4541 42.5336C85.8012 42.5336 85.3137 42.3076 84.9922 41.8556ZM92.0574 42.5046L91.1571 39.5336L90.2065 42.5046H89.5582L88.2331 37.8676L89.2125 37.6728L90.0407 40.9254L90.8546 37.7666H91.6109L92.4247 40.9182L93.1882 37.6656L93.93 37.8748L92.6336 42.5046H92.0574ZM94.4342 37.7306H95.3056V42.4614H94.4342V37.7306ZM100.102 39.31L98.9787 42.4686H98.2152L97.0844 39.281V42.4614H96.3067V37.7234H97.4229L98.7123 41.2065L100.023 37.7234H101.067V42.4614H100.102V39.31ZM105.95 39.31L104.827 42.4686H104.063L102.933 39.281V42.4614H102.155V37.7234H103.271L104.56 41.2065L105.871 37.7234H106.915V42.4614H105.95V39.31ZM107.931 37.7306H108.802V42.4614H107.931V37.7306ZM110.495 39.4974L110.488 42.4614H109.731V37.709H110.437L112.339 40.6946V37.7378H113.088V42.3532L112.389 42.5696C111.909 41.6849 111.278 40.6608 110.495 39.4974ZM115.774 42.5046C115.14 42.5046 114.639 42.2474 114.269 41.7331C113.942 41.2811 113.779 40.7282 113.779 40.0743C113.774 39.4782 113.928 38.9372 114.24 38.4517C114.615 37.8748 115.119 37.5864 115.752 37.5864C115.978 37.5864 116.235 37.6296 116.523 37.7162C116.854 37.822 117.114 37.9518 117.301 38.1056L116.998 38.6681C116.605 38.3989 116.245 38.2619 115.918 38.2571C115.548 38.2571 115.253 38.4831 115.032 38.9348C114.85 39.3052 114.759 39.6969 114.759 40.1105C114.759 40.572 114.859 40.9662 115.061 41.2931C115.263 41.6201 115.51 41.7835 115.803 41.7835C116.101 41.7835 116.334 41.7427 116.502 41.6609V40.2187H115.529V39.5768H117.373V41.9782C117.051 42.1754 116.797 42.3076 116.61 42.3748C116.369 42.4614 116.091 42.5046 115.774 42.5046Z" fill="white"/>
</svg>
