<svg width="24" height="25" viewBox="0 0 24 25" fill="none" xmlns="http://www.w3.org/2000/svg">
<g clip-path="url(#clip0_217_7248)">
<path d="M8.46094 24.7109H4.61756C3.97561 24.7109 3.45337 24.1887 3.45337 23.5467V14.8778H1.21106C0.569063 14.8778 0.046875 14.3554 0.046875 13.7136V9.99894C0.046875 9.35694 0.569063 8.83475 1.21106 8.83475H3.45337V6.97456C3.45337 5.13012 4.03252 3.56094 5.12803 2.43683C6.22852 1.30766 7.76644 0.710938 9.57553 0.710938L12.5066 0.715719C13.1475 0.716797 13.6688 1.23903 13.6688 1.87986V5.32888C13.6688 5.97083 13.1468 6.49306 12.505 6.49306L10.5315 6.49377C9.92962 6.49377 9.77634 6.61442 9.74358 6.65141C9.68958 6.71281 9.62531 6.88616 9.62531 7.36498V8.83461H12.3567C12.5623 8.83461 12.7615 8.88533 12.9327 8.98086C13.3021 9.18725 13.5317 9.57744 13.5317 9.99912L13.5302 13.7138C13.5302 14.3554 13.008 14.8776 12.366 14.8776H9.62527V23.5467C9.62531 24.1887 9.10294 24.7109 8.46094 24.7109ZM4.86033 23.3039H8.21813V14.248C8.21813 13.8193 8.56697 13.4707 8.99541 13.4707H12.1232L12.1245 10.2418H8.99522C8.56678 10.2418 8.21813 9.89319 8.21813 9.46452V7.36503C8.21813 6.81537 8.274 6.19025 8.68889 5.72038C9.19027 5.15239 9.98034 5.08686 10.5311 5.08686L12.2618 5.08611V2.1223L9.57441 2.11794C6.66703 2.11794 4.86038 3.97902 4.86038 6.97461V9.46447C4.86038 9.89291 4.51172 10.2418 4.08323 10.2418H1.45388V13.4706H4.08323C4.51172 13.4706 4.86038 13.8193 4.86038 14.2479L4.86033 23.3039Z" fill="white"/>
</g>
<defs>
<clipPath id="clip0_217_7248">
<rect width="24" height="24" fill="white" transform="translate(0 0.710938)"/>
</clipPath>
</defs>
</svg>
