<svg width="24" height="25" viewBox="0 0 24 25" fill="none" xmlns="http://www.w3.org/2000/svg">
<g clip-path="url(#clip0_217_7254)">
<path d="M17.9996 0.710938H5.99985C2.70023 0.710938 0 3.41116 0 6.71079V18.7111C0 22.0098 2.70023 24.7109 5.99985 24.7109H17.9996C21.2992 24.7109 23.9994 22.0098 23.9994 18.7111V6.71079C23.9994 3.41116 21.2992 0.710938 17.9996 0.710938ZM21.9994 18.7111C21.9994 20.916 20.2057 22.7109 17.9996 22.7109H5.99985C3.79461 22.7109 2.00005 20.916 2.00005 18.7111V6.71079C2.00005 4.50526 3.79461 2.71099 5.99985 2.71099H17.9996C20.2057 2.71099 21.9994 4.50526 21.9994 6.71079V18.7111Z" fill="white"/>
<path d="M18.5 7.71086C19.3284 7.71086 19.9999 7.03931 19.9999 6.2109C19.9999 5.38249 19.3284 4.71094 18.5 4.71094C17.6716 4.71094 17 5.38249 17 6.2109C17 7.03931 17.6716 7.71086 18.5 7.71086Z" fill="white"/>
<path d="M11.9996 6.71094C8.68528 6.71094 5.99976 9.39675 5.99976 12.7108C5.99976 16.0236 8.68528 18.7112 11.9996 18.7112C15.313 18.7112 17.9995 16.0236 17.9995 12.7108C17.9995 9.39675 15.313 6.71094 11.9996 6.71094ZM11.9996 16.7112C9.79074 16.7112 7.9998 14.9202 7.9998 12.7108C7.9998 10.5013 9.79074 8.71099 11.9996 8.71099C14.2085 8.71099 15.9994 10.5013 15.9994 12.7108C15.9994 14.9202 14.2085 16.7112 11.9996 16.7112Z" fill="white"/>
</g>
<defs>
<clipPath id="clip0_217_7254">
<rect width="24" height="24" fill="white" transform="translate(0 0.710938)"/>
</clipPath>
</defs>
</svg>
