<svg width="24" height="25" viewBox="0 0 24 25" fill="none" xmlns="http://www.w3.org/2000/svg">
<path d="M23.8939 5.84517C23.8244 5.73198 23.7247 5.64039 23.606 5.58066C23.4874 5.52093 23.3545 5.49541 23.2221 5.50696L22.0254 5.61121L23.1693 3.30529C23.2357 3.17135 23.2586 3.01995 23.2346 2.87237C23.2106 2.72478 23.141 2.58841 23.0356 2.48241C22.9301 2.3764 22.7941 2.3061 22.6466 2.28135C22.4992 2.25661 22.3476 2.27867 22.2134 2.34445L19.1858 3.82715C17.3154 2.83968 14.9785 3.13279 13.3705 4.59759C12.0285 5.82009 11.3231 7.7001 11.4546 9.57492C7.947 9.22335 4.97794 7.21565 3.22229 3.97162C3.16497 3.86573 3.08186 3.77601 2.98066 3.71076C2.87946 3.64552 2.76343 3.60686 2.64332 3.59837C2.52321 3.58988 2.4029 3.61182 2.29352 3.66218C2.18415 3.71254 2.08924 3.78967 2.0176 3.88645C0.928692 5.35748 0.852286 7.37442 1.70593 9.03375C1.47061 8.97431 1.22021 8.89387 0.94252 8.8011C0.825531 8.76199 0.700416 8.75377 0.579317 8.77727C0.458218 8.80076 0.345249 8.85515 0.251372 8.93518C0.157494 9.0152 0.0858981 9.11814 0.0435306 9.23399C0.00116317 9.34984 -0.0105365 9.47468 0.00956714 9.59639C0.347348 11.6443 1.54154 13.2181 3.42797 14.1497C3.18236 14.2353 2.93146 14.3048 2.67685 14.3579C2.55248 14.3838 2.43725 14.4423 2.343 14.5275C2.24874 14.6126 2.17885 14.7214 2.14051 14.8425C2.10217 14.9636 2.09676 15.0927 2.12483 15.2166C2.15291 15.3405 2.21345 15.4547 2.30025 15.5474C3.65874 16.9995 5.62111 17.7142 7.01499 18.0571C5.43015 19.2982 3.71935 19.5059 1.23338 19.4205C0.945614 19.4118 0.680489 19.5739 0.559505 19.8348C0.500346 19.9624 0.480107 20.1046 0.501315 20.2437C0.522524 20.3828 0.584241 20.5125 0.678755 20.6167C1.71507 21.759 5.49066 23.047 9.45966 23.1436C9.61665 23.1474 9.77677 23.1494 9.94027 23.1494C12.727 23.1494 16.4101 22.552 19.0537 19.9084C21.0546 17.9075 22.3062 15.604 22.7735 13.0622C23.1509 11.0092 22.9124 9.3652 22.7978 8.57507C22.7893 8.51699 22.7803 8.45535 22.773 8.40145L23.8924 6.59723C23.9624 6.48436 23.9997 6.35423 23.9999 6.22141C24.0002 6.08859 23.9635 5.95831 23.8939 5.84517ZM21.3811 8.78057C21.5935 10.2442 22.2397 14.6981 18.0415 18.8962C15.6012 21.3365 12.0468 21.7747 9.49444 21.7127C7.31658 21.6597 5.36855 21.2432 3.95668 20.7682C4.52991 20.6978 5.04075 20.5894 5.52296 20.4395C6.85229 20.0263 7.97532 19.2828 9.0571 18.0997C9.14555 18.003 9.20573 17.8839 9.23109 17.7553C9.25644 17.6267 9.246 17.4936 9.20089 17.3705C9.15579 17.2474 9.07775 17.1391 8.9753 17.0574C8.87284 16.9756 8.7499 16.9236 8.61989 16.9069C7.93744 16.8194 5.88685 16.4743 4.2721 15.3604C4.73743 15.1701 5.18621 14.9319 5.61474 14.6477C5.72981 14.5713 5.82033 14.4633 5.8754 14.3367C5.93046 14.21 5.94771 14.0702 5.92507 13.9339C5.90243 13.7977 5.84087 13.6709 5.74781 13.5689C5.65474 13.4669 5.53415 13.3939 5.40057 13.3589C4.07893 13.0124 2.48386 12.2371 1.74835 10.5063C2.21804 10.5886 2.72874 10.6086 3.27343 10.4864C3.39743 10.4587 3.5118 10.3984 3.60478 10.3117C3.69776 10.2251 3.766 10.1153 3.80249 9.99358C3.83898 9.87185 3.84239 9.7426 3.81239 9.61912C3.78239 9.49563 3.72006 9.38236 3.63179 9.29095C2.7166 8.34304 2.37436 6.97701 2.66799 5.80809C3.62958 7.21345 4.84782 8.3962 6.24357 9.27065C8.02908 10.3893 10.1131 11.0076 12.2703 11.0583C12.3788 11.0607 12.4865 11.0384 12.5852 10.9932C12.6839 10.9479 12.7711 10.8809 12.8401 10.7971C12.9091 10.7132 12.958 10.6147 12.9833 10.509C13.0085 10.4034 13.0094 10.2934 12.9858 10.1874C12.6146 8.51887 13.144 6.74015 14.3344 5.65579C15.5691 4.53103 17.3939 4.3604 18.7719 5.24114C18.8754 5.30727 18.9942 5.34565 19.1168 5.3526C19.2394 5.35954 19.3618 5.33482 19.4721 5.28079L20.9506 4.55667L20.1767 6.11671C20.1203 6.23055 20.0951 6.35737 20.1039 6.48414C20.1127 6.61091 20.155 6.73306 20.2267 6.83803C20.2982 6.94306 20.3965 7.02712 20.5113 7.08156C20.6261 7.13599 20.7534 7.15883 20.88 7.14773L21.9226 7.05693L21.4423 7.83107C21.2811 8.0909 21.3145 8.32143 21.3811 8.78057Z" fill="white"/>
</svg>
