<svg width="34" height="25" viewBox="0 0 34 25" fill="none" xmlns="http://www.w3.org/2000/svg">
<g clip-path="url(#clip0_217_7259)">
<path d="M32.1599 2.31808C31.126 1.28166 29.7501 0.710938 28.2862 0.710938H5.472C2.45473 0.710938 0 3.16566 0 6.18294V18.712C0 21.7292 2.45473 24.184 5.472 24.184H28.2574C31.2677 24.184 33.7224 21.7349 33.7294 18.7246L33.7582 6.1956C33.7615 4.7316 33.1939 3.3545 32.1599 2.31808ZM31.7509 18.72C31.7465 20.6418 30.1793 22.2052 28.2574 22.2052H5.472C3.54574 22.2052 1.97855 20.6382 1.97855 18.712V6.18294C1.97855 4.25667 3.5458 2.68975 5.472 2.68975H28.2862C29.2209 2.68975 30.0992 3.0539 30.7593 3.71555C31.4194 4.3772 31.7817 5.2565 31.7797 6.19092L31.7509 18.72Z" fill="white"/>
<path d="M12.7617 19.2314L23.0485 12.4474L12.7617 5.66309V19.2314ZM14.7403 9.33845L19.4546 12.4474L14.7403 15.5563V9.33845Z" fill="white"/>
</g>
<defs>
<clipPath id="clip0_217_7259">
<rect width="33.7582" height="24" fill="white" transform="translate(0 0.710938)"/>
</clipPath>
</defs>
</svg>
